<?xml version="1.0" encoding="UTF-8"?>
<svg width="169px" height="40px" viewBox="0 0 169 40" version="1.1" xmlns="http://www.w3.org/2000/svg" xmlns:xlink="http://www.w3.org/1999/xlink">
    <!-- Generator: Sketch 51.3 (57544) - http://www.bohemiancoding.com/sketch -->
    <title>Group 16 Copy</title>
    <desc>Created with Sketch.</desc>
    <defs></defs>
    <g id="Page-1" stroke="none" stroke-width="1" fill="none" fill-rule="evenodd">
        <g id="1--Home" transform="translate(-62.000000, -41.000000)" fill="#F2F2F2">
            <g id="Group-16-Copy" transform="translate(62.000000, 41.000000)">
                <path d="M132.778846,20.7876048 C130.461538,20.7837381 128.578846,18.8948715 128.580769,16.5632715 C128.584615,14.2316715 130.463462,12.3447381 132.782692,12.3466715 C135.103846,12.3486048 136.978846,14.2374715 136.976923,16.5671381 C136.978846,18.8987381 135.096154,20.7876048 132.778846,20.7876048 M132.651923,5.00000481 C126.219231,4.99420481 121.003846,10.2316048 121,16.6966715 C121,21.0196048 123.326923,24.7934715 126.792308,26.8215381 L122.376923,32.4958715 L132.798077,32.4630048 C132.798077,32.4630048 141.228846,24.7934715 142.198077,23.3898715 C143.513462,21.4952048 144.282692,19.1945381 144.286538,16.7102048 C144.290385,10.2451381 139.082692,5.00387148 132.651923,5.00000481" id="Fill-1"></path>
                <polygon id="Fill-4" points="74.75225 6 74.76 11.9952667 65.9036875 12.003 65.9075625 16.4496667 70.9450625 16.4496667 70.95475 22.8915333 65.913375 22.8915333 65.9153125 27.2744 74.2349375 27.2628 74.2426875 33.2580667 65.00275 33.2677333 65.00275 33.2503333 58.473375 33.2580667 58.465625 22.8915333 52.3005 22.8915333 52.3005 28.7147333 45.0290625 28.7224667 45 10.6670667 52.2714375 10.6593333 52.29275 16.4496667 58.457875 16.4496667 58.44625 6.0348"></polygon>
                <path d="M88.8700766,15.4924155 L85.5451791,15.4806732 C84.5100695,15.4767591 83.696489,15.4082622 83.7043308,13.8484904 C83.7082516,12.2887187 84.5218321,12.22805 85.5569417,12.2319641 L88.8818392,12.2437064 L88.8700766,15.4924155 Z M84.3983247,6.0007052 C80.0108715,5.98504877 75.63126,6.1611836 75.6038139,13.8210917 C75.5920513,17.3633588 76.911424,19.3478113 78.7836393,20.4613748 L75,28.927589 L83.6180716,28.9549878 L86.7430048,21.6551776 L88.8465514,21.6630058 L88.8249866,28.9726012 L96.923543,29 L97,6.04180332 L84.3983247,6.0007052 Z" id="Fill-7"></path>
                <path d="M108.560059,21.7832696 C106.197078,21.8147787 104.251557,19.9242319 104.218081,17.5590792 C104.184606,15.1939264 106.074991,13.2521773 108.437972,13.2186989 C110.806861,13.1852204 112.746474,15.0757672 112.781919,17.44092 C112.813425,19.8060728 110.92501,21.7497911 108.560059,21.7832696 M108.339514,6.00114273 C101.987033,6.08976211 96.9125313,11.3123975 97.0011431,17.6614838 C97.0936932,24.0145086 102.308005,29.0874758 108.662455,28.9988564 C115.010998,28.910237 120.087469,23.6915402 119.998857,17.3385154 C119.906307,10.9894291 114.690026,5.91252335 108.339514,6.00114273" id="Fill-9"></path>
                <path d="M156.778846,20.7876048 C154.461538,20.7837381 152.578846,18.8948715 152.582692,16.5632715 C152.584615,14.2316715 154.463462,12.3447381 156.782692,12.3466715 C159.103846,12.3486048 160.978846,14.2374715 160.976923,16.5671381 C160.978846,18.8987381 159.096154,20.7876048 156.778846,20.7876048 M156.651923,5.00000481 C150.219231,4.99420481 145.003846,10.2316048 145,16.6966715 C145,21.0196048 147.326923,24.7934715 150.792308,26.8215381 L146.376923,32.4958715 L156.798077,32.4630048 C156.798077,32.4630048 165.228846,24.7934715 166.198077,23.3898715 C167.513462,21.4952048 168.284615,19.1945381 168.286538,16.7102048 C168.290385,10.2451381 163.082692,5.00387148 156.651923,5.00000481" id="Fill-11"></path>
                <path d="M29.9597063,18.1162437 L30,18.0780057 C30,18.0520038 29.9922512,18.0382381 29.9814029,18.0382381 C29.9674551,18.0382381 29.9597063,18.0260019 29.9597063,18 L29.9597063,18.1162437 C29.9597063,18.1942494 29.6048114,18.3747331 28.8919221,18.6576949 C28.2053788,18.9146547 27.4599446,19.1976165 26.6540697,19.5065801 C25.8497447,19.8155437 25.1027607,20.0862693 24.4177671,20.3172273 L23.388727,20.6659585 C20.221019,21.9553464 18.373706,22.8807078 17.8467878,23.4466312 C16.6317766,24.762021 16.7247621,25.8816318 18.122645,26.8085227 C19.5220776,27.7354136 20.9478561,28.1223829 22.3984308,27.9663716 C24.2193979,27.7094117 25.6312286,27.1052502 26.6339229,26.1523574 C27.6645128,25.1994646 28.4223451,24.1762137 28.9105192,23.0810753 C29.4002432,21.9859368 29.6962472,20.9504498 29.8016308,19.9700256 C29.9070144,19.0186623 29.9597063,18.400735 29.9597063,18.1162437 M10.3397892,27.9770268 C11.9108149,28.1086953 13.4191974,27.6745026 14.8665852,26.6713138 C16.3123245,25.6665574 16.3749677,24.5332675 15.0545148,23.2651741 C14.4659984,22.6852055 12.4729553,21.7744981 9.07538548,20.5330519 L7.98077785,20.2179879 C7.25048992,20.0063777 6.44931626,19.7555805 5.58055388,19.4640288 C4.71014299,19.175612 3.89578129,18.8981675 3.13911728,18.633263 C2.40718085,18.3699259 2.02802459,18.1975028 2,18.1191287 L2,18 L2,18.0799416 L2,18.1191287 C2,18.409113 2.07088574,19.0439434 2.2110087,20.0189176 C2.35113167,20.9954593 2.70226333,22.0378352 3.2644037,23.1460454 C3.82654406,24.2558231 4.6524453,25.2840917 5.74870144,26.2355536 C6.87133366,27.1854481 8.40114674,27.7654166 10.3397892,27.9770268 M30.8011768,5.46872513 C31.1294056,6.00509311 31.3771862,6.74041063 31.5413006,7.67786089 C31.707024,8.58984562 31.8228694,9.48113958 31.890446,10.3517428 C31.9596314,11.2239376 31.9934197,11.9783543 31.9934197,12.6229508 L31.9934197,13.5874582 C32.0754769,18.9224893 31.3900579,23.2755053 29.9387718,26.6528728 C28.4858766,30.0302403 26.8350788,32.6834315 24.9863784,34.6124463 C23.1376779,36.5430527 21.3613809,37.8831768 19.6623141,38.6344103 C17.9648564,39.3824606 16.8965038,39.826516 16.4572564,39.9602101 L16.4572564,40 L16.293142,40 L16.293142,39.9602101 C15.882856,39.8519815 14.8145035,39.4365749 13.0864754,38.7123985 C11.3600562,38.0168709 9.54514404,36.7229031 7.64173879,34.8336782 C5.73672457,32.9444533 4.01674129,30.33901 2.48339792,27.0157568 C0.948445589,23.6925036 0.140745303,19.3633615 0.0586881032,14.029922 L0.015246056,13.0654146 C-0.0104973794,12.4224097 -0.00406152053,11.6584434 0.037771562,10.7751074 C0.0796046445,9.89017985 0.166488739,8.9925195 0.304859704,8.08053478 C0.441621705,7.17014165 0.674921588,6.43164094 1.00315039,5.86980742 C1.33298815,5.3063823 1.89290787,4.71749164 2.68934541,4.09995225 C3.48256501,3.51106159 4.5042576,2.94127009 5.75120525,2.39216935 C6.99654394,1.8430686 8.4574839,1.35444851 10.1275893,0.924717492 C11.7993036,0.52204361 13.6624847,0.21486551 15.7171327,0 L15.882856,0 C17.9648564,0.133694095 19.8409092,0.402673882 21.5126236,0.803756167 C23.2100813,1.17937291 24.6903289,1.6218367 25.9533662,2.13114754 C27.2115766,2.64045838 28.2525767,3.17523476 29.0763667,3.73865988 C29.8985476,4.32914213 30.472948,4.90370842 30.8011768,5.46872513" id="Fill-14"></path>
            </g>
        </g>
    </g>
</svg>